<svg xmlns="http://www.w3.org/2000/svg" viewBox="0 0 150 150"><style>.st0{display:none}.st6{fill:#61dafb}</style><g id="Layer_1" class="st0"><path d="M-51.57-7.5l-13-22.52-13 22.52h-43.29l56.29-97.5L-8.28-7.5h-43.29z" fill="#41b883" transform="matrix(1.3333 0 0 -1.3333 161.096 .001)"/><path d="M-51.57-7.5l-13-22.52-13 22.52h-20.78L-64.57-66-30.8-7.5h-20.77z" fill="#34495e" transform="matrix(1.3333 0 0 -1.3333 161.096 .001)"/></g><g id="Layer_2" class="st0"><path d="M129.45 19.85C115.52-.09 88.01-6 68.12 6.68L33.19 28.94c-9.54 6-16.11 15.75-18.11 26.84-1.67 9.24-.2 18.78 4.16 27.1a40.105 40.105 0 0 0-5.99 14.98 42.702 42.702 0 0 0 7.3 32.3C34.48 150.1 61.99 156 81.88 143.33l34.93-22.26c9.54-6 16.12-15.75 18.11-26.84 1.67-9.24.2-18.78-4.16-27.1 2.99-4.54 5.03-9.63 5.99-14.98a42.693 42.693 0 0 0-7.3-32.3" fill="#ff3e00"/><path d="M64.71 132.03a27.74 27.74 0 0 1-29.78-11.04 25.65 25.65 0 0 1-4.39-19.42c.2-1.11.48-2.2.83-3.26l.66-2.01 1.79 1.31c4.13 3.04 8.75 5.35 13.66 6.83l1.3.39-.12 1.3a7.81 7.81 0 0 0 1.41 5.19c2 2.88 5.58 4.21 8.97 3.33.76-.2 1.48-.52 2.15-.94l34.93-22.26a7.253 7.253 0 0 0 3.28-4.86c.36-2.05-.11-4.16-1.32-5.85-2-2.88-5.58-4.21-8.97-3.33-.76.2-1.48.52-2.14.94l-13.33 8.5a25.83 25.83 0 0 1-7.09 3.12 27.74 27.74 0 0 1-29.78-11.04 25.65 25.65 0 0 1-4.39-19.42c1.2-6.67 5.15-12.53 10.89-16.14L78.2 21.11c2.19-1.4 4.59-2.45 7.1-3.12a27.74 27.74 0 0 1 29.78 11.04 25.65 25.65 0 0 1 4.39 19.42c-.2 1.11-.48 2.2-.83 3.26l-.66 2.01-1.79-1.31a44.843 44.843 0 0 0-13.67-6.83l-1.3-.39.12-1.3a7.81 7.81 0 0 0-1.41-5.19c-2-2.88-5.58-4.21-8.97-3.33-.76.2-1.48.52-2.15.94L53.88 58.55a7.253 7.253 0 0 0-3.28 4.86c-.36 2.05.11 4.16 1.32 5.85 2 2.88 5.58 4.21 8.97 3.33.76-.2 1.48-.52 2.15-.94l13.33-8.49c2.19-1.4 4.58-2.45 7.09-3.12a27.74 27.74 0 0 1 29.78 11.04 25.65 25.65 0 0 1 4.39 19.42 24.107 24.107 0 0 1-10.89 16.14L71.81 128.9a25.044 25.044 0 0 1-7.1 3.13" fill="#fff"/></g><g id="Layer_3"><path class="st6" d="M150 75.02c0-9.94-12.44-19.35-31.52-25.19 4.4-19.45 2.45-34.92-6.18-39.87-1.99-1.16-4.31-1.71-6.85-1.71v6.82c1.41 0 2.54.28 3.49.79 4.16 2.38 5.96 11.47 4.56 23.15-.34 2.87-.89 5.9-1.56 8.99-5.99-1.47-12.54-2.6-19.42-3.33-4.13-5.67-8.41-10.81-12.72-15.3 9.97-9.26 19.32-14.34 25.68-14.34V8.21c-8.41 0-19.42 5.99-30.54 16.39C63.81 14.26 52.8 8.33 44.39 8.33v6.82c6.33 0 15.72 5.04 25.68 14.25-4.28 4.49-8.56 9.6-12.63 15.26-6.9.73-13.44 1.86-19.44 3.36a94.07 94.07 0 0 1-1.59-8.87c-1.44-11.68.34-20.76 4.46-23.18.92-.55 2.11-.79 3.52-.79V8.36c-2.57 0-4.89.55-6.91 1.71-8.59 4.95-10.52 20.39-6.08 39.78C12.38 55.72 0 65.11 0 75.02c0 9.94 12.44 19.35 31.52 25.19-4.4 19.45-2.45 34.92 6.18 39.87 1.99 1.16 4.31 1.71 6.88 1.71 8.41 0 19.42-5.99 30.54-16.39 11.13 10.33 22.14 16.27 30.54 16.27 2.57 0 4.89-.55 6.91-1.71 8.59-4.95 10.52-20.39 6.08-39.78C137.62 94.34 150 84.92 150 75.02zm-39.81-20.4c-1.13 3.94-2.54 8.01-4.13 12.08-1.25-2.45-2.57-4.89-4.01-7.34-1.41-2.45-2.9-4.83-4.4-7.15 4.35.64 8.54 1.43 12.54 2.41zm-14 32.56c-2.38 4.13-4.83 8.04-7.37 11.68-4.56.4-9.17.61-13.82.61-4.62 0-9.23-.21-13.76-.58-2.54-3.64-5.01-7.52-7.4-11.62a162.34 162.34 0 0 1-6.36-12.17c1.9-4.1 4.04-8.19 6.33-12.2 2.38-4.13 4.83-8.04 7.37-11.68 4.56-.4 9.17-.61 13.82-.61 4.62 0 9.23.21 13.76.58 2.54 3.64 5.01 7.52 7.4 11.62 2.32 4.01 4.43 8.07 6.36 12.17a172.3 172.3 0 0 1-6.33 12.2zm9.87-3.97c1.65 4.1 3.06 8.19 4.22 12.17-4.01.98-8.22 1.8-12.6 2.45 1.5-2.35 3-4.77 4.4-7.25 1.42-2.45 2.73-4.92 3.98-7.37zm-31 32.62a128.38 128.38 0 0 1-8.5-9.78c2.75.12 5.56.21 8.41.21 2.87 0 5.72-.06 8.5-.21-2.75 3.58-5.6 6.85-8.41 9.78zM52.31 97.82c-4.34-.64-8.53-1.44-12.54-2.42 1.13-3.94 2.54-8.01 4.13-12.08 1.25 2.45 2.57 4.89 4.01 7.34 1.44 2.46 2.91 4.84 4.4 7.16zm22.6-63.62c2.84 2.94 5.69 6.21 8.5 9.78-2.75-.12-5.56-.21-8.41-.21-2.87 0-5.72.06-8.5.21 2.75-3.58 5.6-6.85 8.41-9.78zM52.28 52.21c-1.5 2.35-3 4.77-4.4 7.25-1.41 2.45-2.72 4.89-3.97 7.34-1.65-4.1-3.06-8.19-4.22-12.17 4-.96 8.22-1.78 12.59-2.42zM24.61 90.49C13.79 85.87 6.79 79.82 6.79 75.02s7-10.88 17.83-15.47c2.63-1.13 5.5-2.14 8.47-3.09 1.74 5.99 4.04 12.23 6.88 18.62-2.81 6.36-5.08 12.57-6.79 18.53-3.03-.95-5.91-1.99-8.57-3.12zm16.45 43.69c-4.16-2.38-5.96-11.47-4.56-23.15.34-2.87.89-5.9 1.56-8.99 5.99 1.47 12.54 2.6 19.42 3.33 4.13 5.66 8.41 10.79 12.72 15.29C60.23 129.93 50.88 135 44.52 135c-1.38-.03-2.54-.3-3.46-.82zm72.53-23.3c1.44 11.68-.34 20.76-4.46 23.18-.92.55-2.11.79-3.52.79-6.33 0-15.72-5.04-25.68-14.25 4.28-4.49 8.56-9.6 12.63-15.26 6.91-.73 13.45-1.87 19.45-3.36.69 3.09 1.24 6.06 1.58 8.9zm11.77-20.39c-2.63 1.13-5.5 2.14-8.47 3.09-1.74-5.99-4.04-12.23-6.88-18.62 2.81-6.36 5.08-12.57 6.79-18.53 3.03.95 5.9 1.99 8.59 3.12 10.82 4.62 17.83 10.67 17.83 15.47-.04 4.8-7.04 10.88-17.86 15.47zM44.36 8.33z"/><circle class="st6" cx="74.97" cy="75.02" r="13.97"/><path class="st6" d="M105.42 8.24z"/></g></svg>